<svg xmlns="http://www.w3.org/2000/svg" viewBox="0 0 800 920">
  <defs>
    <linearGradient id="bg" x1="0" y1="0" x2="1" y2="1">
      <stop offset="0%" stop-color="#dbeafe" />
      <stop offset="100%" stop-color="#cffafe" />
    </linearGradient>
    <linearGradient id="card" x1="0" y1="0" x2="1" y2="1">
      <stop offset="0%" stop-color="#1e3a8a" stop-opacity="0.95" />
      <stop offset="100%" stop-color="#0891b2" stop-opacity="0.95" />
    </linearGradient>
  </defs>

  <rect width="800" height="920" rx="44" fill="url(#bg)" />

  <g opacity="0.18" stroke="#1e3a8a" stroke-width="4" fill="none">
    <path d="M80 180l130-70 120 55 145-85 140 80" />
    <path d="M210 110l60 120M330 165l78 125M475 80l66 125" />
    <circle cx="80" cy="180" r="16" fill="#0891b2" fill-opacity="0.2" />
    <circle cx="210" cy="110" r="16" fill="#0891b2" fill-opacity="0.2" />
    <circle cx="330" cy="165" r="16" fill="#0891b2" fill-opacity="0.2" />
    <circle cx="475" cy="80" r="16" fill="#0891b2" fill-opacity="0.2" />
    <circle cx="615" cy="160" r="16" fill="#0891b2" fill-opacity="0.2" />
  </g>

  <g transform="translate(170 195)">
    <circle cx="230" cy="190" r="138" fill="#1e3a8a" fill-opacity="0.16" />
    <circle cx="230" cy="175" r="106" fill="#1e3a8a" fill-opacity="0.28" />
    <rect x="90" y="330" width="280" height="220" rx="140" fill="#1e3a8a" fill-opacity="0.28" />
  </g>

  <g transform="translate(90 670)">
    <rect width="620" height="170" rx="26" fill="url(#card)" />
    <text x="42" y="68" font-size="34" fill="#e0f2fe" font-family="Segoe UI, Arial, sans-serif" font-weight="600">
      Youssef Alaa Eldin Mohamed
    </text>
    <text x="42" y="118" font-size="24" fill="#bfdbfe" font-family="Segoe UI, Arial, sans-serif">
      Chemistry Student & Junior Data Analyst
    </text>
  </g>
</svg>
